REM DIRINDEX 1\2,1\3,1\4,1\5
REM DIRNAME "folder01","folder02","folder03","folder04","folder05"
TITLE ""
FILE "1Q_t_1878-1887.mp3" MP3
  TRACK 01 AUDIO
    TITLE "0:"
    INDEX 01 00:00:00
  TRACK 02 AUDIO
    TITLE "3:cjc172_6635"
    INDEX 01 00:00:16
  TRACK 03 AUDIO
    TITLE "0:"
    INDEX 01 00:01:45
  TRACK 04 AUDIO
    TITLE "4:cjc172_6636"
    INDEX 01 00:01:55
  TRACK 05 AUDIO
    TITLE "0:"
    INDEX 01 00:03:73
  TRACK 06 AUDIO
    TITLE "5:cjc172_6637"
    INDEX 01 00:04:10
  TRACK 07 AUDIO
    TITLE "0:"
    INDEX 01 00:08:69
  TRACK 08 AUDIO
    TITLE "3:cjc172_6638"
    INDEX 01 00:09:41
  TRACK 09 AUDIO
    TITLE "0:"
    INDEX 01 00:11:00
  TRACK 10 AUDIO
    TITLE "4:cjc172_6639"
    INDEX 01 00:11:10
  TRACK 11 AUDIO
    TITLE "0:"
    INDEX 01 00:13:72
  TRACK 12 AUDIO
    TITLE "5:cjc172_6640"
    INDEX 01 00:14:07
  TRACK 13 AUDIO
    TITLE "0:"
    INDEX 01 00:19:06
  TRACK 14 AUDIO
    TITLE "3:cjc172_6641"
    INDEX 01 00:19:53
  TRACK 15 AUDIO
    TITLE "0:"
    INDEX 01 00:21:26
  TRACK 16 AUDIO
    TITLE "4:cjc172_6642"
    INDEX 01 00:21:36
  TRACK 17 AUDIO
    TITLE "0:"
    INDEX 01 00:23:35
  TRACK 18 AUDIO
    TITLE "5:cjc172_6643"
    INDEX 01 00:23:43
  TRACK 19 AUDIO
    TITLE "0:"
    INDEX 01 00:29:28
  TRACK 20 AUDIO
    TITLE "3:cjc172_6644"
    INDEX 01 00:30:09
  TRACK 21 AUDIO
    TITLE "0:"
    INDEX 01 00:31:30
  TRACK 22 AUDIO
    TITLE "4:cjc172_6645"
    INDEX 01 00:31:40
  TRACK 23 AUDIO
    TITLE "0:"
    INDEX 01 00:33:37
  TRACK 24 AUDIO
    TITLE "5:cjc172_6646"
    INDEX 01 00:33:45
  TRACK 25 AUDIO
    TITLE "0:"
    INDEX 01 00:38:50
  TRACK 26 AUDIO
    TITLE "3:cjc172_6647"
    INDEX 01 00:39:28
  TRACK 27 AUDIO
    TITLE "0:"
    INDEX 01 00:40:27
  TRACK 28 AUDIO
    TITLE "4:cjc172_6648"
    INDEX 01 00:40:37
  TRACK 29 AUDIO
    TITLE "0:"
    INDEX 01 00:41:70
  TRACK 30 AUDIO
    TITLE "5:cjc172_6649"
    INDEX 01 00:42:05
  TRACK 31 AUDIO
    TITLE "0:"
    INDEX 01 00:48:01
  TRACK 32 AUDIO
    TITLE "3:cjc172_6650"
    INDEX 01 00:48:49
  TRACK 33 AUDIO
    TITLE "0:"
    INDEX 01 00:49:70
  TRACK 34 AUDIO
    TITLE "4:cjc172_6651"
    INDEX 01 00:50:02
  TRACK 35 AUDIO
    TITLE "0:"
    INDEX 01 00:53:03
  TRACK 36 AUDIO
    TITLE "5:cjc172_6652"
    INDEX 01 00:53:12
  TRACK 37 AUDIO
    TITLE "0:"
    INDEX 01 00:57:30
  TRACK 38 AUDIO
    TITLE "3:cjc172_6653"
    INDEX 01 00:58:04
  TRACK 39 AUDIO
    TITLE "0:"
    INDEX 01 00:59:13
  TRACK 40 AUDIO
    TITLE "4:cjc172_6654"
    INDEX 01 00:59:23
  TRACK 41 AUDIO
    TITLE "0:"
    INDEX 01 01:01:57
  TRACK 42 AUDIO
    TITLE "5:cjc172_6655"
    INDEX 01 01:01:65
  TRACK 43 AUDIO
    TITLE "0:"
    INDEX 01 01:07:50
  TRACK 44 AUDIO
    TITLE "3:cjc172_6656"
    INDEX 01 01:08:22
  TRACK 45 AUDIO
    TITLE "0:"
    INDEX 01 01:09:49
  TRACK 46 AUDIO
    TITLE "4:cjc172_6657"
    INDEX 01 01:09:58
  TRACK 47 AUDIO
    TITLE "0:"
    INDEX 01 01:11:20
  TRACK 48 AUDIO
    TITLE "5:cjc172_6658"
    INDEX 01 01:11:32
  TRACK 49 AUDIO
    TITLE "0:"
    INDEX 01 01:14:71
  TRACK 50 AUDIO
    TITLE "3:cjc172_6659"
    INDEX 01 01:15:47
  TRACK 51 AUDIO
    TITLE "0:"
    INDEX 01 01:16:68
  TRACK 52 AUDIO
    TITLE "4:cjc172_6660"
    INDEX 01 01:17:05
  TRACK 53 AUDIO
    TITLE "0:"
    INDEX 01 01:19:41
  TRACK 54 AUDIO
    TITLE "5:cjc172_6661"
    INDEX 01 01:19:49
  TRACK 55 AUDIO
    TITLE "0:"
    INDEX 01 01:23:35
  TRACK 56 AUDIO
    TITLE "3:cjc172_6662"
    INDEX 01 01:24:09
  TRACK 57 AUDIO
    TITLE "0:"
    INDEX 01 01:25:34
  TRACK 58 AUDIO
    TITLE "4:cjc172_6663"
    INDEX 01 01:25:44
  TRACK 59 AUDIO
    TITLE "0:"
    INDEX 01 01:26:71
  TRACK 60 AUDIO
    TITLE "5:cjc172_6664"
    INDEX 01 01:27:04
  TRACK 61 AUDIO
    TITLE "0:"
    INDEX 01 01:30:66
